<svg height="800" viewBox="0 0 800 800" width="800" xmlns="http://www.w3.org/2000/svg" xmlns:xlink="http://www.w3.org/1999/xlink"><clipPath id="a"><path clip-rule="evenodd" d="m0 700c0 55.228474 44.771526 100 100 100h600c55.228455 0 100-44.771526 100-100v-600c0-55.228455-44.771545-100-100-100h-600c-55.228474 0-100 44.771545-100 100z"/></clipPath><path clip-path="url(#a)" d="m0 0h800v800h-800zm400 720c176.731079 0 320-143.268921 320-320 0-176.73114-143.268921-320-320-320-176.731125 0-320 143.26886-320 320 0 176.731079 143.268875 320 320 320zm0-200c-66.27417 0-120-53.72583-120-120s53.72583-120 120-120 120 53.72583 120 120-53.72583 120-120 120z"/></svg>