<svg height="628" viewBox="0 0 572 628" width="572" xmlns="http://www.w3.org/2000/svg"><path d="m245.774292 13.939148c23.502838-18.853149 56.948578-18.853149 80.451416 0l221.428589 177.621399c15.208557 12.202301 24.059997 30.645172 24.059997 50.145172v322.294281c0 35.502869-28.782898 64.285706-64.285705 64.285706h-71.428589c-35.502869 0-64.285706-28.782837-64.285706-64.285706v-185.714294c0-11.834259-9.594299-21.428559-21.428588-21.428559h-128.571412c-11.834289 0-21.428588 9.5943-21.428588 21.428559v185.714294c0 35.502869-28.781708 64.285706-64.285706 64.285706h-71.428574c-35.503997 0-64.285713-28.782837-64.285713-64.285706v-322.294281c0-19.5 8.850289-37.942871 24.06057-50.145172z"/></svg>