<svg height="600" viewBox="0 0 466 600" width="466" xmlns="http://www.w3.org/2000/svg"><path d="m5.100006 27.299988c-5.433334 10.666687-5.433334 24.666687-5.433334 52.700012v440c0 28 0 42 5.433334 52.700012 4.800766 9.404053 12.455322 17.046936 21.866654 21.833313 10.666671 5.466675 24.666671 5.466675 52.700012 5.466675h6.666656c27.999985 0 41.999985 0 52.699997-5.43335 9.416413-4.795044 17.071564-12.450195 21.866669-21.866638 5.43335-10.666687 5.43335-24.666687 5.43335-52.700012v-440c0-28 0-42-5.43335-52.700012-4.795105-9.416382-12.450256-17.071533-21.866669-21.866638-10.666656-5.43335-24.666656-5.43335-52.699997-5.43335h-6.666656c-28 0-42.000016 0-52.700012 5.43335-9.416413 4.795105-17.071549 12.450256-21.866654 21.866638zm300 0c-5.43335 10.666687-5.43335 24.666687-5.43335 52.700012v440c0 28 0 42 5.466675 52.700012 4.792084 9.398926 12.434388 17.04126 21.833344 21.833313 10.666656 5.466675 24.666687 5.466675 52.699951 5.466675h6.666748c28 0 42 0 52.699951-5.43335 9.404053-4.800781 17.046936-12.455322 21.833374-21.866638 5.466614-10.666687 5.466614-24.666687 5.466614-52.700012v-440c0-28 0-42-5.433289-52.700012-4.795105-9.416382-12.450256-17.071533-21.866699-21.866638-10.666626-5.43335-24.666687-5.43335-52.699951-5.43335h-6.666748c-27.999939 0-41.999939 0-52.699951 5.43335-9.404022 4.800781-17.046936 12.455322-21.833344 21.866638z" fill-rule="evenodd"/></svg>