<svg height="666" viewBox="0 0 534 666" width="534" xmlns="http://www.w3.org/2000/svg"><path d="m462.83667 399.666656c37.95813 0 68.957642 29.848572 70.748291 67.379273l.081726 3.432404v12.521667c0 62.591675-32.361694 109.448303-82.003357 139.669983-48.814941 29.718323-114.431671 43.66333-184.66333 43.66333s-135.848328-13.945007-184.66333-43.66333c-48.137863-29.305847-80.026184-74.253784-81.914612-134.023193l-.08873-5.64679v-12.518311c0-37.975921 29.882492-68.94458 67.400528-70.733398l3.431137-.081635zm-195.83667-399.999969c92.046661 0 166.666687 74.619141 166.666687 166.666626 0 92.046692-74.620026 166.666687-166.666687 166.666687s-166.666672-74.619995-166.666672-166.666687c0-92.047485 74.620011-166.666626 166.666672-166.666626z"/></svg>