<svg height="705" viewBox="0 0 705 705" width="705" xmlns="http://www.w3.org/2000/svg"><path d="m536.333374 135.333313h133.333313v133.333374h-133.333313v300c0 33.333313-20.000061 100-100.00003 100-80 0-100-66.666687-100-100s20-100.000031 100-100.000031c79.999969 0 100.00003 66.666718 100.00003 100.000031z"/><g stroke="#000"><path d="m536.333374 568.666687v-300m0 300c0 33.333313-20.000061 100-100.00003 100-80 0-100-66.666687-100-100s20-100.000031 100-100.000031c79.999969 0 100.00003 66.666718 100.00003 100.000031zm0-300v-133.333374h133.333313v133.333374z" fill="none" stroke-linecap="round" stroke-linejoin="round" stroke-width="66.666664"/><path d="m3 40.04187c0 20.615479 16.71213 37.327576 37.327587 37.327576h358.344837c20.615448 0 37.327576-16.712097 37.327576-37.327576 0-20.615478-16.712128-37.327576-37.327576-37.327576h-358.344837c-20.615457 0-37.327587 16.712098-37.327587 37.327576z" fill-rule="evenodd" stroke-width="3.199507"/><path d="m3 166.692139c0 20.615417 16.71213 37.327575 37.327587 37.327575h358.344837c20.615448 0 37.327576-16.712158 37.327576-37.327575 0-20.615479-16.712128-37.327637-37.327576-37.327637h-358.344837c-20.615457 0-37.327587 16.712158-37.327587 37.327637z" fill-rule="evenodd" stroke-width="3.199507"/><path d="m3 293.342377c0 20.615448 16.71213 37.327575 37.327587 37.327575h358.344837c20.615448 0 37.327576-16.712127 37.327576-37.327575 0-20.615479-16.712128-37.327606-37.327576-37.327606h-358.344837c-20.615457 0-37.327587 16.712127-37.327587 37.327606z" fill-rule="evenodd" stroke-width="3.199507"/></g></svg>