<svg height="500" viewBox="0 0 600 500" width="600" xmlns="http://www.w3.org/2000/svg"><path fill="#444" d="m0 367.199982v50.00003c0 7.024964 5.474998 12.5 12.5 12.5h71.875c42.200012 0 77.350006-19.525024 106.25-49.225006 29.699982-29.700012 53.899994-69.525024 78.125-107.825012 19.524994-31.25 39.074982-60.949982 59.375-83.599976 19.524994-23.450042 39.074982-37.5 62.5-37.5h66.400024v57.024994c0 17.975006 12.5 21.100006 27.349976 9.375l108.599976-90.625c9.375-7.825012 9.375-22.650024 0-30.475036l-108.599976-89.849976c-14.849976-12.5-27.349976-9.375-27.349976 9.375v60.150024h-66.400024c-42.975006 0-76.574982 18.75-106.25 49.224976-28.899994 29.700012-55.475006 69.524994-78.899994 107.024994-20.325012 32.024994-39.075012 62.50003-59.375015 85.149994-19.524979 22.649994-39.074982 36.725036-61.724991 36.725036h-71.875c-7.025002 0-12.5 5.475007-12.5 12.5zm0-278.924958v49.99997c0 7.025024 5.474998 12.5 12.5 12.5h71.875c35.150009 0 63.275009 34.375 93.75 78.900024.774994-2.350006 1.575012-3.900024 2.350006-5.475006.774994-.774994 3.125-2.350036 3.899994-3.899994 11.725006-19.525024 25-38.275024 37.5-58.600006-18.75-24.225036-36.725006-46.100036-60.149994-60.950012-22.649994-15.625-47.649994-24.224976-77.350006-24.224976h-71.875c-8.599998 0-12.5 3.899964-12.5 11.724976zm457.025024 264.849976h-66.400024c-34.375 0-64.074982-33.600006-93.75-77.350006-1.574982 2.350006-2.350006 3.900024-3.125 5.475006-1.574982 1.574982-2.350006 3.125-3.899994 5.475006-5.475006 9.375-12.5 19.524994-17.975006 28.899994-6.25 8.600006-12.5 18.75-17.975006 27.350006 17.975006 24.224976 36.725006 45.324982 59.375 60.149994 21.875 15.625 47.650024 25.775024 77.350006 25.775024h66.400024v54.699952c0 17.975036 12.5 21.875 27.349976 9.375l108.599976-91.399964c9.375-7.825012 9.375-21.87503 0-29.700012l-108.599976-89.850006c-14.849976-11.724976-27.349976-9.375-27.349976 9.375z"/></svg>