<svg height="604" viewBox="0 0 404 604" width="404" xmlns="http://www.w3.org/2000/svg"><path d="m235.333344 35.333313h133.333343v133.333374h-133.333343v300c0 33.333313-20.000031 100-100 100-80.000016 0-100.000016-66.666687-100.000016-100 0-33.333343 20-100.000031 100.000016-100.000031 79.999969 0 100 66.666688 100 100.000031z"/><path d="m235.333344 468.666687v-300m0 300c0 33.333313-20.000031 100-100 100-80.000016 0-100.000016-66.666687-100.000016-100 0-33.333343 20-100.000031 100.000016-100.000031 79.999969 0 100 66.666688 100 100.000031zm0-300v-133.333374h133.333343v133.333374z" fill="none" stroke="#000" stroke-linecap="round" stroke-linejoin="round" stroke-width="66.666664"/></svg>